<svg width="43" height="43" fill="none" xmlns="http://www.w3.org/2000/svg"><path fill="#E5E5E5" d="M0 0h43v43H0z"/><path fill="#fff" d="M-81-88h531v598H-81z"/><path d="M6.718 16.433c-1.46 6.621 1.154 13.456 5.259 16.552 6.615 4.987 16.02 3.668 21.008-2.947a15.04 15.04 0 001.779-3.042l-10.698 1.5A1.875 1.875 0 0121.95 26.9L20.007 14.57l-13.29 1.864z" fill="#335EEA"/><path d="M6.718 16.433l15.354-2.154a1.875 1.875 0 012.117 1.597l1.213 8.646 10.468-1.468c.712-5.207-1.338-10.635-5.832-14.024-6.615-4.987-16.02-3.668-21.008 2.947a14.978 14.978 0 00-2.312 4.456z" fill="#335EEA"/></svg>